<?xml version="1.0" standalone="no"?>
<!DOCTYPE svg PUBLIC "-//W3C//DTD SVG 20010904//EN"
 "http://www.w3.org/TR/2001/REC-SVG-20010904/DTD/svg10.dtd">
<svg version="1.0" xmlns="http://www.w3.org/2000/svg"
 width="70.000000pt" height="70.000000pt" viewBox="0 0 70.000000 70.000000"
 preserveAspectRatio="xMidYMid meet">
<metadata>
Created by potrace 1.14, written by Peter Selinger 2001-2017
</metadata>
<g transform="translate(0.000000,70.000000) scale(0.100000,-0.100000)"
fill="#000000" stroke="none">
<path d="M267 690 c-99 -25 -183 -94 -229 -188 -30 -60 -33 -75 -33 -152 0
-71 5 -94 26 -140 39 -81 90 -134 167 -172 60 -30 75 -33 152 -33 71 0 94 5
140 26 81 39 134 90 172 167 30 60 33 75 33 152 0 98 -25 164 -89 237 -73 84
-228 131 -339 103z m58 -230 c17 -64 23 -106 18 -130 -6 -33 -7 -30 -29 50
-20 73 -33 192 -19 179 2 -3 16 -48 30 -99z m109 3 c16 -49 30 -93 32 -98 3
-6 -16 -33 -41 -62 -25 -28 -45 -57 -45 -64 0 -8 7 -2 16 11 10 14 33 41 52
62 l34 36 -22 68 c-22 65 -22 68 -4 81 24 17 34 17 34 -2 0 -9 7 -15 16 -13
13 2 27 -24 60 -107 24 -60 44 -113 44 -117 0 -5 -22 -8 -48 -8 -27 0 -70 -6
-95 -14 -26 -8 -45 -10 -42 -5 3 4 37 18 75 29 69 21 96 36 43 24 -67 -14
-122 -36 -138 -54 -18 -20 -18 -20 -32 0 -8 11 -14 45 -14 77 -1 55 -11 120
-24 155 -6 15 48 88 64 88 4 0 20 -39 35 -87z m-177 -2 c12 -6 24 -18 28 -28
10 -24 53 -197 50 -201 -1 -2 -24 10 -50 25 -47 27 -49 31 -72 113 -13 47 -27
93 -30 102 -4 15 -1 16 25 9 16 -5 38 -14 49 -20z m-68 -64 c32 -110 41 -125
97 -157 30 -17 54 -32 54 -33 0 -2 -25 -2 -57 1 -43 4 -59 1 -68 -11 -6 -8
-28 -18 -48 -22 -32 -6 -37 -5 -37 11 0 11 -11 63 -25 117 -14 54 -25 105 -25
114 0 34 18 -3 35 -71 16 -68 33 -118 34 -103 1 4 -10 49 -24 101 -14 52 -25
96 -25 98 0 2 17 2 39 0 35 -4 39 -7 50 -45z m158 -129 c-3 -8 -6 -5 -6 6 -1
11 2 17 5 13 3 -3 4 -12 1 -19z m-100 -74 c-3 -3 -12 -4 -19 -1 -8 3 -5 6 6 6
11 1 17 -2 13 -5z"/>
<path d="M501 469 c-1 -3 10 -32 24 -65 13 -32 24 -52 24 -44 0 15 -47 120
-48 109z"/>
<path d="M550 335 c0 -5 5 -17 10 -25 5 -8 10 -10 10 -5 0 6 -5 17 -10 25 -5
8 -10 11 -10 5z"/>
<path d="M153 220 c2 -8 12 -16 23 -17 13 -2 15 -1 4 4 -8 3 -19 11 -23 17 -6
7 -7 6 -4 -4z"/>
</g>
</svg>
