<svg width="325" height="250" viewBox="0 0 325 250" fill="none" xmlns="http://www.w3.org/2000/svg">
<path d="M304.452 110.413V101.531C304.452 99.8372 303.763 98.2128 302.537 97.0151C301.31 95.8174 299.647 95.1446 297.912 95.1446H274.829C273.971 95.1446 273.12 94.9794 272.327 94.6584C271.533 94.3375 270.812 93.8671 270.205 93.274C269.598 92.681 269.116 91.9769 268.787 91.2021C268.459 90.4273 268.29 89.5968 268.29 88.7581V79.8757C268.29 79.037 268.459 78.2066 268.787 77.4317C269.116 76.6569 269.598 75.9528 270.205 75.3598C270.812 74.7668 271.533 74.2963 272.327 73.9754C273.12 73.6545 273.971 73.4893 274.829 73.4893H275.558C277.293 73.4893 278.956 72.8164 280.182 71.6187C281.409 70.421 282.098 68.7966 282.098 67.1028V58.2204C282.098 56.5266 281.409 54.9022 280.182 53.7045C278.956 52.5068 277.293 51.834 275.558 51.834H64.6046C62.8701 51.834 61.2067 52.5068 59.9803 53.7045C58.7539 54.9022 58.0649 56.5266 58.0649 58.2204V67.1028C58.0649 68.7966 58.7539 70.421 59.9803 71.6187C61.2067 72.8164 62.8701 73.4893 64.6046 73.4893C66.339 73.4893 68.0024 74.1621 69.2289 75.3598C70.4553 76.5575 71.1443 78.1819 71.1443 79.8757V88.7581C71.1443 90.4519 70.4553 92.0763 69.2289 93.274C68.0024 94.4717 66.339 95.1446 64.6046 95.1446H39.3149C37.5804 95.1446 35.917 95.8174 34.6906 97.0151C33.4642 98.2128 32.7752 99.8372 32.7752 101.531V110.413C32.7752 112.107 33.4642 113.732 34.6906 114.929C35.917 116.127 37.5804 116.8 39.3149 116.8H49.2382C50.097 116.8 50.9474 116.965 51.7408 117.286C52.5343 117.607 53.2552 118.077 53.8625 118.67C54.4697 119.263 54.9514 119.967 55.2801 120.742C55.6087 121.517 55.7779 122.348 55.7779 123.186V132.069C55.7779 132.907 55.6087 133.738 55.2801 134.513C54.9514 135.288 54.4697 135.992 53.8625 136.585C53.2552 137.178 52.5343 137.648 51.7408 137.969C50.9474 138.29 50.097 138.455 49.2382 138.455H49.2142C47.4797 138.455 45.8163 139.128 44.5899 140.326C43.3635 141.523 42.6745 143.148 42.6745 144.842V153.724C42.6745 154.563 42.8436 155.393 43.1723 156.168C43.5009 156.943 43.9827 157.647 44.5899 158.24C45.1972 158.833 45.9181 159.303 46.7116 159.624C47.505 159.945 48.3554 160.11 49.2142 160.11H50.6499C52.3844 160.11 54.0478 160.783 55.2742 161.981C56.5006 163.179 57.1896 164.803 57.1896 166.497V175.379C57.1896 177.073 56.5006 178.698 55.2742 179.895C54.0478 181.093 52.3844 181.766 50.6499 181.766H27.0876C25.3532 181.766 23.6898 182.439 22.4634 183.636C21.2369 184.834 20.5479 186.459 20.5479 188.152V197.035C20.5479 197.873 20.7171 198.704 21.0457 199.479C21.3744 200.253 21.8561 200.958 22.4633 201.551C23.0706 202.144 23.7916 202.614 24.585 202.935C25.3784 203.256 26.2288 203.421 27.0876 203.421H279.069C279.928 203.421 280.778 203.256 281.572 202.935C282.365 202.614 283.086 202.144 283.693 201.551C284.301 200.958 284.782 200.253 285.111 199.479C285.44 198.704 285.609 197.873 285.609 197.035V188.152C285.609 187.314 285.44 186.483 285.111 185.708C284.782 184.933 284.301 184.229 283.693 183.636C283.086 183.043 282.365 182.573 281.572 182.252C280.778 181.931 279.928 181.766 279.069 181.766H273.399C271.664 181.766 270.001 181.093 268.775 179.895C267.548 178.698 266.859 177.073 266.859 175.379V166.497C266.859 164.803 267.548 163.179 268.775 161.981C270.001 160.783 271.664 160.11 273.399 160.11H286.769C287.628 160.11 288.478 159.945 289.271 159.624C290.065 159.303 290.786 158.833 291.393 158.24C292 157.647 292.482 156.943 292.811 156.168C293.139 155.393 293.309 154.563 293.309 153.724V144.842C293.309 143.148 292.62 141.523 291.393 140.326C290.167 139.128 288.503 138.455 286.769 138.455H282.713C281.854 138.455 281.004 138.29 280.21 137.969C279.417 137.648 278.696 137.178 278.089 136.585C277.481 135.992 277 135.288 276.671 134.513C276.342 133.738 276.173 132.907 276.173 132.069V123.186C276.173 122.348 276.342 121.517 276.671 120.742C277 119.967 277.481 119.263 278.089 118.67C278.696 118.077 279.417 117.607 280.21 117.286C281.004 116.965 281.854 116.8 282.713 116.8H297.912C299.647 116.8 301.31 116.127 302.537 114.929C303.763 113.732 304.452 112.107 304.452 110.413Z" fill="#DBE8EC"/>
<path d="M228.116 115.979H244.268" stroke="#B9D4DB" stroke-width="3" stroke-miterlimit="10" stroke-linecap="round"/>
<path d="M228.116 120.525H244.268" stroke="#B9D4DB" stroke-width="3" stroke-miterlimit="10" stroke-linecap="round"/>
<path d="M228.116 125.071H244.268" stroke="#B9D4DB" stroke-width="3" stroke-miterlimit="10" stroke-linecap="round"/>
<path d="M201.252 77.386H72.2321C68.6423 77.386 65.7321 80.2279 65.7321 83.7336V178.616C65.7321 182.122 68.6423 184.964 72.2321 184.964H201.252C204.842 184.964 207.752 182.122 207.752 178.616V83.7336C207.752 80.2279 204.842 77.386 201.252 77.386Z" fill="#3086A3"/>
<path d="M192.811 87.4934H80.6735C78.1889 87.4934 76.1748 89.4603 76.1748 91.8866V170.463C76.1748 172.89 78.1889 174.857 80.6735 174.857H192.811C195.295 174.857 197.31 172.89 197.31 170.463V91.8866C197.31 89.4603 195.295 87.4934 192.811 87.4934Z" fill="#409CB5"/>
<path d="M120.112 99.7102H93.6121C91.9111 99.7102 90.5321 101.057 90.5321 102.718V120.257C90.5321 121.918 91.9111 123.265 93.6121 123.265H120.112C121.813 123.265 123.192 121.918 123.192 120.257V102.718C123.192 101.057 121.813 99.7102 120.112 99.7102Z" fill="#DBE8EC"/>
<path d="M181.762 140.14H155.262C153.561 140.14 152.182 141.487 152.182 143.148V160.687C152.182 162.348 153.561 163.695 155.262 163.695H181.762C183.463 163.695 184.842 162.348 184.842 160.687V143.148C184.842 141.487 183.463 140.14 181.762 140.14Z" fill="#DBE8EC"/>
<path d="M155.732 124.495V129.837C155.732 130.405 155.618 130.968 155.395 131.493C155.172 132.018 154.846 132.494 154.435 132.896C154.023 133.298 153.535 133.617 152.997 133.834C152.46 134.051 151.884 134.163 151.302 134.163H102.742C101.567 134.163 100.44 134.619 99.6096 135.43C98.7789 136.242 98.3121 137.342 98.3121 138.489C98.3121 139.637 98.7789 140.737 99.6096 141.549C100.44 142.36 101.567 142.816 102.742 142.816H124.482C125.657 142.816 126.784 143.271 127.615 144.083C128.445 144.894 128.912 145.994 128.912 147.142V147.591C128.912 148.159 129.027 148.722 129.249 149.247C129.472 149.771 129.798 150.248 130.21 150.65C130.621 151.052 131.109 151.371 131.647 151.588C132.184 151.805 132.76 151.917 133.342 151.917H152.182" stroke="#DBE8EC" stroke-width="2" stroke-miterlimit="10"/>
<path d="M207.752 132.464H219.492C220.667 132.464 221.794 132.92 222.625 133.731C223.455 134.543 223.922 135.643 223.922 136.79V137.239C223.922 137.808 224.037 138.37 224.259 138.895C224.482 139.42 224.808 139.897 225.22 140.299C225.631 140.7 226.119 141.019 226.657 141.236C227.194 141.454 227.77 141.566 228.352 141.566H237.192" stroke="#409CB5" stroke-width="2" stroke-miterlimit="10"/>
<path d="M123.192 110.081H151.302C152.477 110.081 153.604 110.537 154.435 111.348C155.265 112.16 155.732 113.26 155.732 114.407V118.343" stroke="#DBE8EC" stroke-width="2" stroke-miterlimit="10"/>
<path d="M152.182 118.343H159.152" stroke="#DBE8EC" stroke-width="2" stroke-miterlimit="10"/>
<path d="M152.182 124.495H159.152" stroke="#DBE8EC" stroke-width="2" stroke-miterlimit="10"/>
<path d="M243.926 143.577H248.912" stroke="#409CB5" stroke-width="4" stroke-miterlimit="10"/>
<path d="M243.926 138.695H248.912" stroke="#409CB5" stroke-width="4" stroke-miterlimit="10"/>
<path d="M281.372 121.917H253.612C253.06 121.917 252.612 122.354 252.612 122.894V158.558C252.612 159.097 253.06 159.534 253.612 159.534H281.372C281.924 159.534 282.372 159.097 282.372 158.558V122.894C282.372 122.354 281.924 121.917 281.372 121.917Z" fill="#F9AE2B"/>
<path d="M267.012 145.941C270.392 145.941 273.132 143.265 273.132 139.964C273.132 136.663 270.392 133.988 267.012 133.988C263.632 133.988 260.892 136.663 260.892 139.964C260.892 143.265 263.632 145.941 267.012 145.941Z" fill="#409CB5"/>
<path d="M269.848 134.67C270.818 135.707 271.384 137.045 271.445 138.448C271.505 139.852 271.058 141.231 270.18 142.344C269.302 143.457 268.05 144.232 266.645 144.533C265.24 144.833 263.771 144.641 262.497 143.988C263.099 144.633 263.838 145.141 264.662 145.477C265.487 145.813 266.377 145.968 267.269 145.932C268.162 145.896 269.036 145.669 269.829 145.268C270.622 144.867 271.316 144.301 271.861 143.609C272.406 142.918 272.79 142.119 272.985 141.267C273.18 140.416 273.181 139.533 272.989 138.681C272.797 137.829 272.417 137.029 271.874 136.336C271.331 135.643 270.639 135.074 269.848 134.67Z" fill="#3086A3"/>
<path d="M161.498 203.421H111.986C111.786 203.421 111.591 203.362 111.425 203.253C111.259 203.143 111.131 202.987 111.057 202.805C110.983 202.624 110.967 202.425 111.01 202.234C111.053 202.043 111.154 201.869 111.299 201.735L112.604 200.531C114.773 198.529 116.501 196.116 117.682 193.439C118.863 190.763 119.472 187.879 119.472 184.964H154.012C154.012 187.879 154.621 190.763 155.802 193.439C156.983 196.116 158.711 198.529 160.88 200.531L162.185 201.735C162.33 201.869 162.431 202.043 162.474 202.234C162.518 202.425 162.501 202.624 162.427 202.805C162.353 202.987 162.225 203.143 162.059 203.253C161.894 203.362 161.698 203.421 161.498 203.421Z" fill="#409CB5"/>
<path d="M241.832 135.628H243.926V146.644H241.832C240.336 146.644 238.902 146.064 237.844 145.031C236.786 143.998 236.192 142.597 236.192 141.136C236.192 139.675 236.786 138.274 237.844 137.241C238.902 136.208 240.336 135.628 241.832 135.628Z" fill="#409CB5"/>
<path d="M269.548 141.26C270.282 141.26 270.876 140.68 270.876 139.964C270.876 139.248 270.282 138.668 269.548 138.668C268.815 138.668 268.221 139.248 268.221 139.964C268.221 140.68 268.815 141.26 269.548 141.26Z" fill="#DBE8EC"/>
<path d="M264.476 141.26C265.209 141.26 265.803 140.68 265.803 139.964C265.803 139.248 265.209 138.668 264.476 138.668C263.743 138.668 263.148 139.248 263.148 139.964C263.148 140.68 263.743 141.26 264.476 141.26Z" fill="#DBE8EC"/>
<path d="M29.2054 178.159H45.3569" stroke="#B9D4DB" stroke-width="3" stroke-miterlimit="10" stroke-linecap="round"/>
<path d="M29.2054 182.706H45.3569" stroke="#B9D4DB" stroke-width="3" stroke-miterlimit="10" stroke-linecap="round"/>
<path d="M29.2054 187.252H45.3569" stroke="#B9D4DB" stroke-width="3" stroke-miterlimit="10" stroke-linecap="round"/>
<path d="M154.424 58.3597H170.576" stroke="#B9D4DB" stroke-width="3" stroke-miterlimit="10" stroke-linecap="round"/>
<path d="M154.424 62.9058H170.576" stroke="#B9D4DB" stroke-width="3" stroke-miterlimit="10" stroke-linecap="round"/>
<path d="M154.424 67.452H170.576" stroke="#B9D4DB" stroke-width="3" stroke-miterlimit="10" stroke-linecap="round"/>
<path d="M53.5728 76.6772C58.1092 76.6772 61.7867 73.0859 61.7867 68.6558C61.7867 64.2256 58.1092 60.6343 53.5728 60.6343C49.0363 60.6343 45.3588 64.2256 45.3588 68.6558C45.3588 73.0859 49.0363 76.6772 53.5728 76.6772Z" fill="#B9D4DB"/>
<path d="M53.9061 56.4791C56.2691 56.4791 58.1846 54.6084 58.1846 52.3009C58.1846 49.9933 56.2691 48.1226 53.9061 48.1226C51.5431 48.1226 49.6276 49.9933 49.6276 52.3009C49.6276 54.6084 51.5431 56.4791 53.9061 56.4791Z" fill="#B9D4DB"/>
<path d="M82.4035 58.3584C84.4486 58.3584 86.1066 56.7394 86.1066 54.7421C86.1066 52.7449 84.4486 51.1259 82.4035 51.1259C80.3584 51.1259 78.7004 52.7449 78.7004 54.7421C78.7004 56.7394 80.3584 58.3584 82.4035 58.3584Z" fill="#B9D4DB"/>
<path d="M68.9316 53.6381C70.2946 53.6381 71.3996 52.5591 71.3996 51.228C71.3996 49.8969 70.2946 48.8179 68.9316 48.8179C67.5686 48.8179 66.4636 49.8969 66.4636 51.228C66.4636 52.5591 67.5686 53.6381 68.9316 53.6381Z" fill="#B9D4DB"/>
<path d="M71.7996 70.1612C75.0671 70.1612 77.7159 67.5745 77.7159 64.3836C77.7159 61.1927 75.0671 58.6059 71.7996 58.6059C68.5321 58.6059 65.8833 61.1927 65.8833 64.3836C65.8833 67.5745 68.5321 70.1612 71.7996 70.1612Z" fill="#B9D4DB"/>
<path d="M258.486 99.3904C263.022 99.3904 266.7 95.799 266.7 91.3689C266.7 86.9387 263.022 83.3474 258.486 83.3474C253.949 83.3474 250.272 86.9387 250.272 91.3689C250.272 95.799 253.949 99.3904 258.486 99.3904Z" fill="#B9D4DB"/>
<path d="M241.1 99.5003C243.463 99.5003 245.378 97.6297 245.378 95.3221C245.378 93.0145 243.463 91.1438 241.1 91.1438C238.737 91.1438 236.821 93.0145 236.821 95.3221C236.821 97.6297 238.737 99.5003 241.1 99.5003Z" fill="#B9D4DB"/>
<path d="M241.1 84.1861C244.367 84.1861 247.016 81.5994 247.016 78.4085C247.016 75.2176 244.367 72.6308 241.1 72.6308C237.832 72.6308 235.183 75.2176 235.183 78.4085C235.183 81.5994 237.832 84.1861 241.1 84.1861Z" fill="#B9D4DB"/>
<path d="M260.892 198.88C265.429 198.88 269.106 195.288 269.106 190.858C269.106 186.428 265.429 182.837 260.892 182.837C256.356 182.837 252.678 186.428 252.678 190.858C252.678 195.288 256.356 198.88 260.892 198.88Z" fill="#B9D4DB"/>
<path d="M244.598 202.496C246.643 202.496 248.301 200.877 248.301 198.88C248.301 196.883 246.643 195.264 244.598 195.264C242.553 195.264 240.895 196.883 240.895 198.88C240.895 200.877 242.553 202.496 244.598 202.496Z" fill="#B9D4DB"/>
<path d="M240.059 190.858C243.326 190.858 245.975 188.271 245.975 185.081C245.975 181.89 243.326 179.303 240.059 179.303C236.791 179.303 234.143 181.89 234.143 185.081C234.143 188.271 236.791 190.858 240.059 190.858Z" fill="#B9D4DB"/>
<path d="M207.752 97.3748C217.611 97.3748 225.603 89.57 225.603 79.9422C225.603 70.3144 217.611 62.5095 207.752 62.5095C197.893 62.5095 189.901 70.3144 189.901 79.9422C189.901 89.57 197.893 97.3748 207.752 97.3748Z" fill="#F9AE2B"/>
<path d="M208.682 70.2314C208.682 69.73 208.266 69.3235 207.752 69.3235C207.239 69.3235 206.822 69.73 206.822 70.2314V84.5405C206.822 85.042 207.239 85.4485 207.752 85.4485C208.266 85.4485 208.682 85.042 208.682 84.5405V70.2314Z" fill="#409CB5"/>
<path d="M207.752 91.3689C209.996 91.3689 209.999 87.9641 207.752 87.9641C205.509 87.9641 205.505 91.3689 207.752 91.3689Z" fill="#409CB5"/>
</svg>
